<?xml version="1.0" standalone="yes"?>
<svg xmlns="http://www.w3.org/2000/svg" width="922" height="802">
<path style="fill:#000000; stroke:none;" d="M579 450C590.735 433.567 597.915 413.332 603.151 394C629.69 296.012 583.183 190.861 492 145.27C407.893 103.217 305.572 124.821 241.015 191C168.697 265.134 165.616 389.527 228.662 470C259.285 509.089 302.859 535.319 351 546.349C384.646 554.057 422.877 553.149 456 543.279C468.479 539.561 481.456 535.191 493 529.111C496.796 527.112 503.474 521.469 508 523.102C519.246 527.159 530.024 544.798 539 552.714C571.914 581.745 602.962 613.962 634 645C655.261 666.261 679.229 688.386 711 673.215C737.664 660.483 747.413 624.936 731.934 600C715.701 573.849 685.147 552.138 663 530.961C641.514 510.415 621.044 488.776 599 468.83C592.236 462.71 586.472 455.264 579 450z"/>
<path style="fill:#ffffff; stroke:none;" d="M391.715 209.54C353.98 214.178 321.061 227.028 296.669 258C239.949 330.021 277.69 440.071 367 461.87C381.5 465.41 397.186 466.533 412 464.714C470.816 457.49 519.152 409.423 524.83 350C531.719 277.907 468.374 200.117 391.715 209.54z"/>
</svg>
