<?xml version="1.0" standalone="yes"?>
<svg xmlns="http://www.w3.org/2000/svg" width="902" height="602">
<path style="fill:#000000; stroke:none;" d="M176 51L176 101L211 101C215.277 101 222.049 99.7356 225.61 102.603C229.605 105.821 231.098 112.535 233.258 117C238.392 127.609 243.711 138.198 248.424 149C262.871 182.11 280.154 213.999 294.861 247C299.52 257.454 304.757 267.697 309.742 278C311.454 281.54 315.292 287.38 314.64 291.424C313.508 298.455 306.627 306.754 303.231 313C287.343 342.217 260.549 377.701 288.184 408.999C310.408 434.168 351.914 426 382 426L626 426L626 376L402 376L349 376C343.516 376 333.804 377.754 331.508 370.981C329.491 365.032 337.974 355.013 340.691 350C344.114 343.687 348.209 330.953 354.39 327.028C358.955 324.128 368.748 326 374 326L422 326L511 326C527.197 326 544.752 328.236 560 321.769C578.778 313.804 586.043 295.641 595.424 279C614.307 245.508 632.409 211.575 651.14 178C659.087 163.754 673.853 145.393 675.816 129C677.3 116.599 669.256 104.509 657 101.681C647.318 99.4463 635.902 101 626 101L567 101L372 101L312 101C303.519 101 292.281 102.955 284.105 100.682C279.339 99.357 277.199 92.0664 275.424 88C271.501 79.0078 265.434 57.6629 257.363 52.0278C252.635 48.7271 240.617 51 235 51L176 51M319 451.439C311.071 452.677 303.577 455.397 297 460.043C255.644 489.257 282.415 558.523 333 550.561C340.827 549.329 348.517 546.536 355 541.957C396.554 512.606 369.87 443.494 319 451.439M569 451.439C561.496 452.611 554.25 455.06 548 459.44C506.415 488.581 531.138 558.724 583 550.561C590.827 549.329 598.517 546.536 605 541.957C646.554 512.606 619.87 443.494 569 451.439z"/>
</svg>
